<svg xmlns="http://www.w3.org/2000/svg" viewBox="0 0 800 457.66"><defs><style>.cls-1,.cls-2,.cls-3,.cls-4,.cls-5,.cls-6{fill:none;stroke-miterlimit:10;}.cls-1{stroke:#f7ab73;}.cls-2{stroke:#c83f67;}.cls-3{stroke:#cb4169;}.cls-4{stroke:#d25184;}.cls-5{stroke:#d5588e;}.cls-6{stroke:#de67ac;}</style></defs><g id="Layer_6" data-name="Layer 6"><circle class="cls-1" cx="394.34" cy="113.5" r="75.53"/><path class="cls-2" d="M414.12,135c.33,4.65,44.57,6.43,78.85,5.35,26.71-.84,35.3-3,60.81-2,19.62.79,22.3,2.4,42.77,4,45,3.53,87.46.09,87.54-2.67.06-2.16-25.72-4.53-27.4-4.68-19.2-1.73-25.69,0-42.1-1.34-11.46-.9-15-2.25-34.75-6-26-5-39.15-7.46-54.13-8.69-36-2.93-63.65,3.1-86.2,8C425.93,130,414,132.59,414.12,135Z"/><path class="cls-3" d="M0,91.71c2.71,13.56,109.64,5.6,151.93,2.9,45-2.88,67.54-4.32,93.77-4,31.33.31,53.57,2.25,95.5.57,5.84-.23,56.1-2.24,56.15-5.78,0-2.85-32.32-5.59-34.73-5.79C348.67,78.4,343.94,79,327.69,78c-15.05-.93-25.36-2.29-31.64-3-45.18-5.26-68.62.48-109.39-5.21C127,61.39,127.78,42.2,94.05,48.3c-26.88,4.86-38.33,19-67.73,16.79C21.14,64.69,3.07,62.85,0,69.72c-.72,1.61-.2,2.79,0,11S-.23,90.56,0,91.71Z"/><path class="cls-4" d="M147.88,161.75c.17,1.45,9,1.57,26,1.74,8.84.08,10.14-.05,16.79,0,18.31.11,21.22,1.18,35.31,1.15,5.47,0,27,0,27.2-2.31.12-1.51-9.23-4-17.94-4.63-7.84-.58-8.82.79-18.53.58-5.95-.13-12.14-.27-19.67-2.32-9.61-2.61-11.36-5.61-18-5.21-3.18.2-3.85,1-12.15,4.05C153.34,159.88,147.74,160.59,147.88,161.75Z"/><path class="cls-5" d="M800,175.64c-2,5.45-20.26,3-40.31,1.74-23.17-1.49-35.17-.6-35.31-2.32-.16-1.94,15.12-5.2,21.42-6.36,8.78-1.62,12.17-1.4,18.52-4.06,6.64-2.78,6.18-4.4,11.57-6.36,9.88-3.6,22-2,24.11,2.89.45,1.05,0,1.28,0,8.1C800,174.87,800.26,175,800,175.64Z"/><polygon class="cls-1" points="549.1 228.83 561.15 220.21 620.77 220.21 669.39 199.37 752.16 189.03 782.26 196.48 800 199.37 800.21 228.83 549.1 228.83"/><path class="cls-6" d="M0,197.52H43.93L77,208.93l51.24-8.67,87.06,28.57S0,234.46,0,230.58Z"/></g></svg>