<svg id="Layer_1" data-name="Layer 1" xmlns="http://www.w3.org/2000/svg" viewBox="0 0 329 492"><defs><style>.cls-1{fill:none;stroke:#000;stroke-miterlimit:10;stroke-width:2px;}</style></defs><path class="cls-1" d="M165.09,18.59a107.63,107.63,0,0,1-21,19.48c-6.78,4.78-11.36,6.81-17,10,0,0-13.94,7.9-32,25-18.53,17.55-39.76,48.77-50,85-7.34,26-10.89,36-18,56a82.07,82.07,0,0,1-7,15,82.88,82.88,0,0,1-13.49,17,78.82,78.82,0,0,1,12.49,13c13,17.15,14.92,34.63,18,50,0,0,6,30.15,19,57,21.13,43.8,60.79,74.49,77,82a82.87,82.87,0,0,1,32,25.34c4-3.7,9-8.26,15-13.34a190.68,190.68,0,0,1,16-13c13.15-9.55,20.74-12.47,29-18,12.32-8.24,19-17.46,28-30,27.39-38,37.39-80.33,38-83,0,0,8.69-38.21,21-56,2.45-3.53,5-7,5-7,2.07-2.81,3.9-5.18,5.31-7a75.18,75.18,0,0,1-12.31-14,76.9,76.9,0,0,1-11-25c-4.7-18.5-14.71-51.64-21-68-12-31.14-34.26-63.37-55-76-9.09-5.53-17.94-11.43-27-17-6.48-4-10.74-6.52-16-11A88,88,0,0,1,165.09,18.59Z"/><path class="cls-1" d="M164.61,35.41A99.9,99.9,0,0,1,145.32,53.6c-6.23,4.46-10.44,6.36-15.62,9.34,0,0-12.8,7.37-29.39,23.34-17,16.39-36.51,45.53-45.92,79.36-6.74,24.24-10,33.59-16.53,52.29a77.87,77.87,0,0,1-6.43,14A77.31,77.31,0,0,1,19,247.82,72.72,72.72,0,0,1,30.51,260c12,16,13.7,32.33,16.53,46.68,0,0,5.55,28.14,17.45,53.22,19.41,40.89,55.84,69.55,70.72,76.56a76.44,76.44,0,0,1,16.53,10.27,77.23,77.23,0,0,1,12.87,13.39c3.65-3.45,8.28-7.71,13.77-12.45a173.45,173.45,0,0,1,14.69-12.14c12.08-8.92,19.05-11.65,26.64-16.81,11.32-7.69,17.42-16.31,25.72-28,25.15-35.49,34.34-75,34.9-77.49,0,0,8-35.68,19.28-52.29,2.25-3.3,4.6-6.54,4.6-6.54,1.9-2.63,3.58-4.84,4.88-6.52a69.52,69.52,0,0,1-11.31-13.08,73,73,0,0,1-10.11-23.35c-4.31-17.27-13.51-48.21-19.28-63.49-11-29.07-31.47-59.16-50.52-71-8.34-5.16-16.47-10.67-24.8-15.87-5.94-3.71-9.86-6.09-14.69-10.27A81.77,81.77,0,0,1,164.61,35.41Z"/><path class="cls-1" d="M192.09,435.76a8.5,8.5,0,0,1-2,1.16c-2,.79-5.27,4.16-9,8-1.85,1.9-12.23,10.46-13,11-2,1.35-2.61,3.16-3,3s-.21-4.72,0-5.16c.62-1.34,2.76-1.07,2.9-1.84s-2.18-1.11-3-3c-.42-.95-.43-7.05,0-8,.2-.44,5-4.38,5-5,0-1-4.72-5-5-6s-.37-6.81,0-7c.67-.34,11.36,12.41,11,14s-2.28,1.3-5,4c-1,.94-3.87,3.82-3,6,.54,1.39,2.47,2.13,4,2,2.63-.23,4.36-3.12,5-5,.9-2.66-.06-4.24,1-5,1.31-.95,3.12,1.33,6,1a7.23,7.23,0,0,0,6-6c.35-2.83-1.2-6.3-4-7-2.59-.65-5.8,1.16-6,3a2,2,0,0,0,1,2c1,.35,1.75-1.19,3-1a2.78,2.78,0,0,1,2,3c-.34,1.6-2.75,2-4,2a5.32,5.32,0,0,1-4-2c-2-2.6-1.15-7.48,2-10a8.21,8.21,0,0,1,10,0c2.89,2.37,3,6.71,3,7,0,.74-.09,1-.08,1.47a4.85,4.85,0,0,0,.08.53,5.19,5.19,0,0,1,.1,1.84C193,435,192.88,435.2,192.09,435.76Z"/><path class="cls-1" d="M137.66,435.76a8.31,8.31,0,0,0,2,1.16c2,.79,5.27,4.16,9,8,1.85,1.9,12.23,10.46,13,11,2,1.35,2.61,3.16,3,3s.21-4.72,0-5.16c-.63-1.34-2.76-1.07-2.9-1.84s2.18-1.11,3-3c.41-.95.43-7.05,0-8-.2-.44-5-4.38-5-5,0-1,4.72-5,5-6s.37-6.81,0-7c-.68-.34-11.36,12.41-11,14s2.27,1.3,5,4c1,.94,3.87,3.82,3,6-.55,1.39-2.47,2.13-4,2-2.64-.23-4.36-3.12-5-5-.9-2.66.05-4.24-1-5-1.32-.95-3.13,1.33-6,1a7.22,7.22,0,0,1-6-6c-.35-2.83,1.2-6.3,4-7,2.58-.65,5.79,1.16,6,3a2,2,0,0,1-1,2c-1,.35-1.75-1.19-3-1a2.77,2.77,0,0,0-2,3c.34,1.6,2.74,2,4,2a5.33,5.33,0,0,0,4-2c2-2.6,1.15-7.48-2-10a8.21,8.21,0,0,0-10,0c-2.89,2.37-3,6.71-3,7,0,.74.09,1,.07,1.47a4.81,4.81,0,0,1-.07.53,5.19,5.19,0,0,0-.1,1.84C136.72,435,136.87,435.2,137.66,435.76Z"/><path class="cls-1" d="M271.51,247.36c-.34-.67,12.42-11.36,14-11s1.31,2.27,4,5c.95,1,3.82,3.87,6,3,1.39-.55,2.14-2.47,2-4-.23-2.63-3.12-4.36-5-5-2.66-.9-4.24,0-5-1-.95-1.32,1.33-3.13,1-6a7.22,7.22,0,0,0-6-6c-2.82-.35-6.29,1.2-7,4-.64,2.58,1.16,5.79,3,6a2,2,0,0,0,2-1c.35-1-1.18-1.75-1-3a2.79,2.79,0,0,1,3-2c1.6.34,2,2.75,2,4a5.25,5.25,0,0,1-2,4c-2.6,2-7.47,1.15-10-2a8.21,8.21,0,0,1,0-10,8.74,8.74,0,0,1,7-3c1,.09,1.74.37,2,0,.46-.63-1.2-2.22-3-5-2.12-3.28-3.19-4.93-3-7,.15-1.61,1.43-3.07,4-6,1.45-1.65,3-3.4,4-3,.64.27,1.27,3.26,1,4-.61,1.73-3,1.34-4,3-.8,1.39-.28,3.07,0,4,1,3.34,3.46,4.32,6,7,2,2.09,1.07,2.1,5,9a88.36,88.36,0,0,0,7,11c.57.72,1.64,2,3,4s1.24,2,2,3c2.12,2.63,4.23,3.49,4,4s-5.54.3-6,0c-1.05-.7-.43-2.82-1-3s-1.08,2.17-3,3c-.95.42-7.05.43-8,0-.44-.2-4.38-5-5-5-.95,0-5,4.72-6,5S271.7,247.73,271.51,247.36Z"/><path class="cls-1" d="M271.51,248.31c-.34.67,12.42,11.36,14,11s1.31-2.28,4-5c.95-1,3.82-3.87,6-3,1.39.54,2.14,2.47,2,4-.23,2.63-3.12,4.36-5,5-2.66.9-4.24-.05-5,1-.95,1.32,1.33,3.13,1,6a7.22,7.22,0,0,1-6,6c-2.82.35-6.29-1.2-7-4-.64-2.59,1.16-5.79,3-6a2,2,0,0,1,2,1c.35,1-1.18,1.75-1,3a2.79,2.79,0,0,0,3,2c1.6-.34,2-2.75,2-4a5.25,5.25,0,0,0-2-4c-2.6-2-7.47-1.15-10,2a8.21,8.21,0,0,0,0,10,8.74,8.74,0,0,0,7,3c1-.09,1.74-.37,2,0,.46.63-1.2,2.22-3,5-2.12,3.28-3.19,4.93-3,7,.15,1.61,1.43,3.07,4,6,1.45,1.64,3,3.4,4,3,.64-.27,1.27-3.26,1-4-.61-1.74-3-1.34-4-3-.8-1.39-.28-3.07,0-4,1-3.34,3.46-4.32,6-7,2-2.09,1.07-2.1,5-9a87.63,87.63,0,0,1,7-11c.57-.72,1.64-2,3-4s1.24-2.05,2-3c2.12-2.63,4.23-3.49,4-4s-5.54-.3-6,0c-1.05.7-.43,2.82-1,3s-1.08-2.17-3-3c-.95-.42-7.05-.43-8,0-.44.2-4.38,5-5,5-.95,0-5-4.72-6-5S271.7,247.94,271.51,248.31Z"/><path class="cls-1" d="M56.86,247.36c.34-.67-12.41-11.36-14-11s-1.3,2.27-4,5c-.94,1-3.81,3.87-6,3-1.38-.55-2.13-2.47-2-4,.24-2.63,3.13-4.36,5-5,2.67-.9,4.25,0,5-1,1-1.32-1.33-3.13-1-6a7.24,7.24,0,0,1,6-6c2.83-.35,6.3,1.2,7,4,.65,2.58-1.15,5.79-3,6a2,2,0,0,1-2-1c-.35-1,1.19-1.75,1-3a2.77,2.77,0,0,0-3-2c-1.6.34-2,2.75-2,4a5.32,5.32,0,0,0,2,4c2.6,2,7.48,1.15,10-2a8.2,8.2,0,0,0,0-10,8.72,8.72,0,0,0-7-3c-1,.09-1.73.37-2,0-.45-.63,1.21-2.22,3-5,2.13-3.28,3.2-4.93,3-7-.15-1.61-1.42-3.07-4-6-1.44-1.65-3-3.4-4-3-.63.27-1.26,3.26-1,4,.62,1.73,3,1.34,4,3,.81,1.39.29,3.07,0,4-1,3.34-3.45,4.32-6,7-2,2.09-1.07,2.1-5,9a86.11,86.11,0,0,1-7,11c-.56.72-1.63,2-3,4s-1.23,2-2,3c-2.11,2.63-4.22,3.49-4,4s5.55.3,6,0c1.06-.7.44-2.82,1-3s1.09,2.17,3,3c.95.42,7.06.43,8,0,.45-.2,4.39-5,5-5,1,0,5,4.72,6,5S56.68,247.73,56.86,247.36Z"/><path class="cls-1" d="M56.86,248.31c.34.67-12.41,11.36-14,11s-1.3-2.28-4-5c-.94-1-3.81-3.87-6-3-1.38.54-2.13,2.47-2,4,.24,2.63,3.13,4.36,5,5,2.67.9,4.25-.05,5,1,1,1.32-1.33,3.13-1,6a7.24,7.24,0,0,0,6,6c2.83.35,6.3-1.2,7-4,.65-2.59-1.15-5.79-3-6a2,2,0,0,0-2,1c-.35,1,1.19,1.75,1,3a2.77,2.77,0,0,1-3,2c-1.6-.34-2-2.75-2-4a5.32,5.32,0,0,1,2-4c2.6-2,7.48-1.15,10,2a8.2,8.2,0,0,1,0,10,8.72,8.72,0,0,1-7,3c-1-.09-1.73-.37-2,0-.45.63,1.21,2.22,3,5,2.13,3.28,3.2,4.93,3,7-.15,1.61-1.42,3.07-4,6-1.44,1.64-3,3.4-4,3-.63-.27-1.26-3.26-1-4,.62-1.74,3-1.34,4-3,.81-1.39.29-3.07,0-4-1-3.34-3.45-4.32-6-7-2-2.09-1.07-2.1-5-9a85.41,85.41,0,0,0-7-11c-.56-.72-1.63-2-3-4s-1.23-2.05-2-3c-2.11-2.63-4.22-3.49-4-4s5.55-.3,6,0c1.06.7.44,2.82,1,3s1.09-2.17,3-3c.95-.42,7.06-.43,8,0,.45.2,4.39,5,5,5,1,0,5-4.72,6-5S56.68,247.94,56.86,248.31Z"/><path class="cls-1" d="M137,59.62c.51-.35.85-.59,1.25-.81a6.06,6.06,0,0,1,.75-.34c3.65-1.47,11.1-7.71,11.1-7.71,6-5.06,9-7.59,10-9,1.19-1.77,2.8-3.23,4-5,.22-.33.73-1.1,1-1s-.47,5.11-1.1,5.86c-1.15,1.39-2.75,1.05-2.9,1.85s2.18,1.11,3,3c.42.94.43,7.05,0,8-.2.44-5,4.38-5,5,0,1,4.72,5,5,6s.37,6.81,0,7c-.67.33-11.36-12.42-11-14s2.27-1.31,5-4c1-.95,3.87-3.82,3-6-.55-1.39-2.47-2.14-4-2-2.63.23-4.36,3.12-5,5-.9,2.66,0,4.24-1,5-1.32.94-3.13-1.33-6-1a7.22,7.22,0,0,0-6,6c-.35,2.82,1.2,6.29,4,7,2.58.64,5.79-1.16,6-3a2,2,0,0,0-1-2c-1-.36-1.75,1.18-3,1a2.79,2.79,0,0,1-2-3c.34-1.61,2.75-2,4-2a5.25,5.25,0,0,1,4,2c2,2.59,1.15,7.47-2,10a8.23,8.23,0,0,1-10,0c-2.89-2.38-3-6.71-3-7,0,0-.65-2.8-.1-3.85A2.9,2.9,0,0,1,137,59.62Z"/><path class="cls-1" d="M193.09,61.07c-.2-.14-2.52-2-5.15-4.06l-7.87-6.25c-6-5.06-9-7.59-10-9-1.19-1.77-2.8-3.23-4-5-.22-.33-.74-1.1-1-1s.47,5.11,1.1,5.86c1.15,1.39,2.75,1.05,2.89,1.85s-2.17,1.11-3,3c-.41.94-.42,7.05,0,8,.21.44,5,4.38,5,5,.05,1-4.71,5-5,6s-.37,6.81,0,7c.68.33,11.37-12.42,11-14s-2.27-1.31-5-4c-.95-.95-3.86-3.82-3-6,.55-1.39,2.48-2.14,4-2,2.64.23,4.37,3.12,5,5,.91,2.66-.05,4.24,1,5,1.32.94,3.13-1.33,6-1,2.21.25,5.94,5.47,6,6,.36,2.82-1.19,6.29-4,7-2.58.64-5.79-1.16-6-3a2,2,0,0,1,1-2c1-.36,1.76,1.18,3,1a2.77,2.77,0,0,0,2-3c-.33-1.61-2.74-2-4-2a5.27,5.27,0,0,0-4,2c-2,2.59-1.14,7.47,2,10a8.23,8.23,0,0,0,10,0c2.89-2.38,3-6.71,3-7,0-.75-.08-1-.07-1.47,0-.22,0-.38.07-.53C194.33,62.06,194.07,61.79,193.09,61.07Z"/><circle class="cls-1" cx="131.09" cy="73.07" r="4"/><circle class="cls-1" cx="199.09" cy="73.07" r="4"/><circle class="cls-1" cx="277.09" cy="194.07" r="4"/><circle class="cls-1" cx="277.09" cy="297.07" r="4"/><circle class="cls-1" cx="199.09" cy="421.07" r="4"/><circle class="cls-1" cx="131.09" cy="421.07" r="4"/><circle class="cls-1" cx="53.09" cy="194.07" r="4"/><circle class="cls-1" cx="53.09" cy="300.07" r="4"/></svg>