<svg id="Layer_1" data-name="Layer 1" xmlns="http://www.w3.org/2000/svg" viewBox="0 0 329 492"><defs><style>.cls-1{fill:none;stroke:#000;stroke-miterlimit:10;stroke-width:2px;}</style></defs><path class="cls-1" d="M180.41,452.51c1.53.1,1.29,3.62,4.33,6.5.67.63,2.3,2.18,4.34,2.16,2.57,0,4.47-2.52,5.77-4.33,5.05-7,6.38-10.45,8.67-13.72.46-.66,8.47-11.83,18-10.83,3.33.35,8.17,2.31,9.38,6.5,1.36,4.71-2.23,10.93-7.22,11.55-2.91.37-6.64-1.13-7.94-4.33-.9-2.22-.73-5.52,1.45-7.22s5.53-1.51,6.49,0a2,2,0,0,1,0,2.17c-.93,1.14-3.26-.33-4.33.72s-.6,3.45.72,4.33c1.76,1.16,5.27-.3,6.5-2.89a5.75,5.75,0,0,0-.72-5.77c-1.9-2.52-5.56-2.75-7.94-2.17-1.59.39-2.39,1.09-8.67,7.94-2.91,3.19-4.75,5.23-4.33,5.78s2.17-1,5.06-.72c2.21.18,4.41,1.37,4.33,2.16-.06.62-1.5,1-3.61,1.45-2.56.59-3,.37-4.34.72-2.15.59-3.44,1.92-5.77,4.33-3,3.1-2.42,3.67-4.33,5.06a11,11,0,0,1-7.22,2.16c-3.6-.37-4.66-2.83-6.5-2.16-2.09.75-1.18,4.1-3.61,6.5s-7.85,3.24-10.83.72c-4.15-3.5-2.2-12,1.44-13.72a5,5,0,0,1,5,.72,4.66,4.66,0,0,1,1.45,2.89c.2,1.35,0,3.57-1.45,4.33a2.14,2.14,0,0,1-2.16,0,1.54,1.54,0,0,1-.72-1.44c.16-.77,1.18-.75,1.44-1.45.38-1-1-3-2.17-2.89s-2.5,2.77-2.16,5.06a5.12,5.12,0,0,0,3.61,4.33c2.64.6,4.67-1.7,5.05-2.17A7.92,7.92,0,0,0,179,459c-.26-2.08-1.2-2.86-.73-4.33C178.56,453.69,179.49,452.45,180.41,452.51Z"/><path class="cls-1" d="M151.19,452.54c-1.53.1-1.29,3.62-4.33,6.5-.67.64-2.3,2.18-4.33,2.17-2.58,0-4.47-2.53-5.78-4.33-5.05-7-6.38-10.45-8.66-13.72-.47-.67-8.48-11.84-18.06-10.83-3.33.34-8.17,2.3-9.38,6.49-1.36,4.71,2.23,10.93,7.22,11.56,2.91.36,6.64-1.13,7.94-4.34.9-2.22.73-5.51-1.44-7.22s-5.54-1.51-6.5,0a2,2,0,0,0,0,2.17c.94,1.14,3.27-.33,4.33.72s.6,3.46-.72,4.33c-1.75,1.17-5.27-.3-6.5-2.88a5.76,5.76,0,0,1,.72-5.78c1.9-2.51,5.57-2.75,7.94-2.17,1.59.39,2.4,1.1,8.67,8,2.91,3.18,4.75,5.22,4.33,5.77s-2.17-1-5-.72c-2.22.18-4.41,1.38-4.34,2.17.07.61,1.51.95,3.61,1.44,2.56.6,3,.37,4.34.72,2.16.59,3.44,1.92,5.77,4.34,3,3.09,2.43,3.66,4.34,5.05a11,11,0,0,0,7.22,2.17c3.6-.38,4.66-2.83,6.5-2.17,2.08.75,1.18,4.11,3.61,6.5s7.84,3.24,10.83.72c4.15-3.5,2.19-12-1.45-13.72a5,5,0,0,0-5.05.72,4.72,4.72,0,0,0-1.45,2.89c-.2,1.35,0,3.57,1.45,4.33a2.14,2.14,0,0,0,2.16,0,1.57,1.57,0,0,0,.73-1.44c-.16-.77-1.19-.74-1.45-1.44-.37-1,1-3,2.17-2.89s2.5,2.76,2.16,5a5.1,5.1,0,0,1-3.61,4.33c-2.64.6-4.67-1.7-5-2.16a7.87,7.87,0,0,1-1.44-5.78c.25-2.07,1.19-2.85.72-4.33C153,453.72,152.12,452.48,151.19,452.54Z"/><path class="cls-1" d="M158.75,470.56h2.89v3.6a2.45,2.45,0,0,0,.4,1.34l1.77,2.65a2.42,2.42,0,0,0,2,1.08h.32a2.42,2.42,0,0,0,2-1.08l1.77-2.65a2.45,2.45,0,0,0,.4-1.34v-3.6h2.89v3.73a2.42,2.42,0,0,1-.28,1.13l-4.82,9a2.41,2.41,0,0,1-2.12,1.27h0a2.39,2.39,0,0,1-2.12-1.27l-4.82-9a2.42,2.42,0,0,1-.28-1.13Z"/><path class="cls-1" d="M180.41,39.49c1.53-.1,1.29-3.62,4.33-6.5.67-.63,2.3-2.18,4.34-2.16,2.57,0,4.47,2.52,5.77,4.33,5.05,7,6.38,10.45,8.67,13.72.46.66,8.47,11.83,18,10.83,3.33-.35,8.17-2.31,9.38-6.5,1.36-4.71-2.23-10.93-7.22-11.55-2.91-.37-6.64,1.13-7.94,4.33-.9,2.22-.73,5.52,1.45,7.22s5.53,1.51,6.49,0a2,2,0,0,0,0-2.17c-.93-1.14-3.26.33-4.33-.72s-.6-3.45.72-4.33c1.76-1.16,5.27.3,6.5,2.89a5.75,5.75,0,0,1-.72,5.77c-1.9,2.52-5.56,2.75-7.94,2.17-1.59-.39-2.39-1.09-8.67-7.94-2.91-3.19-4.75-5.23-4.33-5.78s2.17,1,5.06.72c2.21-.18,4.41-1.37,4.33-2.16-.06-.62-1.5-1-3.61-1.45-2.56-.59-3-.37-4.34-.72-2.15-.59-3.44-1.92-5.77-4.33-3-3.1-2.42-3.67-4.33-5.06a11,11,0,0,0-7.22-2.16c-3.6.37-4.66,2.83-6.5,2.16-2.09-.75-1.18-4.1-3.61-6.5s-7.85-3.24-10.83-.72c-4.15,3.5-2.2,12,1.44,13.72a5,5,0,0,0,5-.72A4.66,4.66,0,0,0,176.08,33c.2-1.35,0-3.57-1.45-4.33a2.14,2.14,0,0,0-2.16,0,1.54,1.54,0,0,0-.72,1.44c.16.77,1.18.75,1.44,1.45.38,1-1,3-2.17,2.89s-2.5-2.77-2.16-5.06a5.12,5.12,0,0,1,3.61-4.33c2.64-.6,4.67,1.7,5.05,2.17A7.92,7.92,0,0,1,179,33c-.26,2.08-1.2,2.86-.73,4.33C178.56,38.31,179.49,39.55,180.41,39.49Z"/><path class="cls-1" d="M151.19,39.46c-1.53-.1-1.29-3.62-4.33-6.5-.67-.64-2.3-2.18-4.33-2.17-2.58,0-4.47,2.53-5.78,4.33-5.05,7-6.38,10.45-8.66,13.72-.47.67-8.48,11.84-18.06,10.83-3.33-.34-8.17-2.3-9.38-6.49-1.36-4.71,2.23-10.93,7.22-11.56,2.91-.36,6.64,1.13,7.94,4.34.9,2.22.73,5.51-1.44,7.22s-5.54,1.51-6.5,0a2,2,0,0,1,0-2.17c.94-1.14,3.27.33,4.33-.72s.6-3.46-.72-4.33c-1.75-1.17-5.27.3-6.5,2.88a5.76,5.76,0,0,0,.72,5.78c1.9,2.51,5.57,2.75,7.94,2.17,1.59-.39,2.4-1.1,8.67-7.95,2.91-3.18,4.75-5.22,4.33-5.77s-2.17,1-5,.72c-2.22-.18-4.41-1.38-4.34-2.17.07-.61,1.51-.95,3.61-1.44,2.56-.6,3-.37,4.34-.72,2.16-.59,3.44-1.92,5.77-4.34,3-3.09,2.43-3.66,4.34-5a11,11,0,0,1,7.22-2.17c3.6.38,4.66,2.83,6.5,2.17,2.08-.75,1.18-4.11,3.61-6.5s7.84-3.24,10.83-.72c4.15,3.5,2.19,12-1.45,13.72a5,5,0,0,1-5.05-.72A4.72,4.72,0,0,1,155.52,33c-.2-1.35,0-3.57,1.45-4.33a2.14,2.14,0,0,1,2.16,0,1.57,1.57,0,0,1,.73,1.44c-.16.77-1.19.74-1.45,1.44-.37,1,1,3,2.17,2.89s2.5-2.76,2.16-5A5.1,5.1,0,0,0,159.13,25c-2.64-.6-4.67,1.7-5,2.16A7.87,7.87,0,0,0,152.64,33c.25,2.07,1.19,2.85.72,4.33C153,38.28,152.12,39.52,151.19,39.46Z"/><path class="cls-1" d="M158.75,21.44h2.89v-3.6a2.45,2.45,0,0,1,.4-1.34l1.77-2.65a2.42,2.42,0,0,1,2-1.08h.32a2.42,2.42,0,0,1,2,1.08l1.77,2.65a2.45,2.45,0,0,1,.4,1.34v3.6h2.89V17.71a2.42,2.42,0,0,0-.28-1.13l-4.82-9A2.41,2.41,0,0,0,166,6.28h0a2.39,2.39,0,0,0-2.12,1.27l-4.82,9a2.42,2.42,0,0,0-.28,1.13Z"/><path class="cls-1" d="M308.22,239.5c-1.27.3-2-1.08-2.89-.72s-1,1.8-.72,2.89a3.47,3.47,0,0,0,2.16,2.16c1.92.63,4-.72,5.06-2.16a6.12,6.12,0,0,0,.72-5.06,7.1,7.1,0,0,0-3.61-4.33c-3.4-1.61-6.8.46-7.22.72-2.47,1.56-3,3.84-3.61,3.61s-.93-3.53.72-5.77c.92-1.26,1.91-1.52,2.89-2.17,3.79-2.51,5.24-9.37,3.61-14.44a16.82,16.82,0,0,0-5.06-7.22c-1.72-1.43-2.87-1.76-4.33-3.61-1.8-2.28-2.82-5.3-2.17-5.78s2.21,1,4.34,2.89a43.32,43.32,0,0,1,7.22,7.94,24.23,24.23,0,0,1,2.89,5.06,14.65,14.65,0,0,1,1.44,7.22c-.51,4.43-3.83,6.51-2.89,7.94.69,1.05,2.55.05,5.06,1.44a8.05,8.05,0,0,1,2.88,2.89,9.47,9.47,0,0,1,0,10.11,8.37,8.37,0,0,1-5.77,3.61c-3,.33-6.79-1.14-7.95-4.33-.7-2-.54-4.88,1.45-6.5a4.94,4.94,0,0,1,5.05-.72c1,.48,2.42,1.67,2.17,2.89A2,2,0,0,1,308.22,239.5Z"/><path class="cls-1" d="M308.22,253.92c-1.27-.3-2,1.08-2.89.72s-1-1.79-.72-2.89a3.5,3.5,0,0,1,2.16-2.16c1.92-.63,4,.72,5.06,2.16a6.12,6.12,0,0,1,.72,5.06,7.08,7.08,0,0,1-3.61,4.33c-3.4,1.61-6.8-.46-7.22-.72-2.47-1.55-3-3.83-3.61-3.61s-.93,3.53.72,5.78c.92,1.25,1.91,1.51,2.89,2.16,3.79,2.51,5.24,9.38,3.61,14.44a16.82,16.82,0,0,1-5.06,7.22c-1.72,1.44-2.87,1.76-4.33,3.61-1.8,2.28-2.82,5.3-2.17,5.78s2.21-1,4.34-2.89a43.32,43.32,0,0,0,7.22-7.94,24.15,24.15,0,0,0,2.89-5.05,14.71,14.71,0,0,0,1.44-7.23c-.51-4.43-3.83-6.51-2.89-7.94.69-1.05,2.55-.05,5.06-1.44a8,8,0,0,0,2.88-2.89,9.47,9.47,0,0,0,0-10.11,8.4,8.4,0,0,0-5.77-3.61c-3-.33-6.79,1.14-7.95,4.33-.7,2-.54,4.88,1.45,6.5a4.92,4.92,0,0,0,5.05.72c1-.47,2.42-1.67,2.17-2.88A2,2,0,0,0,308.22,253.92Z"/><path class="cls-1" d="M316.5,244.3l3.39,1.48a1.4,1.4,0,0,1,.26,2.43L316.21,251a1.41,1.41,0,0,0-.54,1.49h0a1.41,1.41,0,0,0,2.21.79l8-5.93a1.41,1.41,0,0,0-.23-2.4l-7.83-3.8a1.41,1.41,0,0,0-2,1l-.12.54A1.42,1.42,0,0,0,316.5,244.3Z"/><path class="cls-1" d="M20.78,241c1.27.3,2-1.08,2.89-.73s1,1.8.72,2.89a3.53,3.53,0,0,1-2.16,2.17c-1.92.63-4-.73-5.06-2.17a6.1,6.1,0,0,1-.72-5.05,7.11,7.11,0,0,1,3.61-4.34c3.4-1.6,6.8.46,7.22.73,2.47,1.55,2.95,3.83,3.61,3.61s.93-3.53-.72-5.78c-.92-1.26-1.91-1.52-2.89-2.17-3.79-2.51-5.24-9.37-3.61-14.44a16.89,16.89,0,0,1,5.06-7.22c1.72-1.43,2.87-1.76,4.33-3.61,1.8-2.28,2.82-5.3,2.17-5.77s-2.21,1-4.34,2.88a43.23,43.23,0,0,0-7.22,8,24.15,24.15,0,0,0-2.89,5,14.67,14.67,0,0,0-1.44,7.22c.51,4.43,3.83,6.51,2.89,7.94-.69,1-2.55.06-5.06,1.45a7.9,7.9,0,0,0-2.88,2.89,9.47,9.47,0,0,0,0,10.11,8.4,8.4,0,0,0,5.77,3.61c3,.33,6.79-1.14,8-4.34.7-2,.54-4.88-1.45-6.49a4.92,4.92,0,0,0-5-.73c-1,.48-2.42,1.67-2.17,2.89A2,2,0,0,0,20.78,241Z"/><path class="cls-1" d="M20.78,255.37c1.27-.31,2,1.07,2.89.72s1-1.8.72-2.89A3.53,3.53,0,0,0,22.23,251c-1.92-.63-4,.73-5.06,2.17a6.1,6.1,0,0,0-.72,5.05,7.11,7.11,0,0,0,3.61,4.34c3.4,1.6,6.8-.46,7.22-.73,2.47-1.55,2.95-3.83,3.61-3.61s.93,3.53-.72,5.78c-.92,1.26-1.91,1.52-2.89,2.17-3.79,2.51-5.24,9.37-3.61,14.44a16.82,16.82,0,0,0,5.06,7.22c1.72,1.43,2.87,1.76,4.33,3.61,1.8,2.28,2.82,5.3,2.17,5.77s-2.21-1-4.34-2.88a43.23,43.23,0,0,1-7.22-7.95,24.15,24.15,0,0,1-2.89-5.05,14.67,14.67,0,0,1-1.44-7.22c.51-4.43,3.83-6.51,2.89-7.94-.69-1.05-2.55-.05-5.06-1.45a7.9,7.9,0,0,1-2.88-2.89,9.47,9.47,0,0,1,0-10.11,8.4,8.4,0,0,1,5.77-3.61c3-.33,6.79,1.14,8,4.34.7,2,.54,4.88-1.45,6.5a4.94,4.94,0,0,1-5,.72c-1-.48-2.42-1.67-2.17-2.89A2,2,0,0,1,20.78,255.37Z"/><path class="cls-1" d="M12.5,245.74l-3.39,1.48a1.41,1.41,0,0,0-.26,2.44l3.94,2.83a1.4,1.4,0,0,1,.54,1.48h0a1.41,1.41,0,0,1-2.21.79l-8-5.93a1.41,1.41,0,0,1,.23-2.4l7.83-3.79a1.41,1.41,0,0,1,2,1l.12.54A1.41,1.41,0,0,1,12.5,245.74Z"/><path class="cls-1" d="M45.38,223.62c1,.74-.24,2.84.73,3.61.69.55,2.2.16,2.89-.73,1-1.3,0-3.39-.73-4.33A5.48,5.48,0,0,0,43.22,220c-3.64.53-4.9,5.16-5.06,5.77a9.77,9.77,0,0,0,.73,6.5c1.79,3.46,4.55,3.06,8.66,7.94a9.6,9.6,0,0,1,2.17,3.61,9.73,9.73,0,0,1-.72,6.5c-1.64,3.71-3.73,3.45-7.23,7.95-1.82,2.34-3.37,4.33-3.61,7.22-.26,3.27,1.17,7.74,4.34,8.66a5,5,0,0,0,5-1.44,4,4,0,0,0,.72-4.34c-.46-.84-1.5-1.7-2.16-1.44-1.09.43,0,3.49-1.45,4.33a2.57,2.57,0,0,1-2.89-.72c-1.35-1.53-.44-4.78,1.45-6.5a5.74,5.74,0,0,1,4.33-1.44c2.81.34,4.56,3,5.06,5.05a8.21,8.21,0,0,1-2.17,7.22c-1.4,1.47-2.94,1.85-2.89,2.89,0,.81,1,1.06,2.17,2.17A10.19,10.19,0,0,1,52.61,285a8.75,8.75,0,0,1-1.45,6.5c-1.82,2.34-4.21,2.24-4.33,3.61s2.1,1.73,3.61,3.61c.77,1,2.09,3.2,0,13.72-1.65,8.3-2.81,8.61-2.17,11.55.81,3.73,3.32,6.22,6.5,9.39,2.53,2.51,4,3.95,5.78,3.61,2.33-.46,3.94-3.82,3.61-6.5,0-.32-.38-2.78-2.17-3.61-.87-.4-2-.37-2.16,0s.88.86,1.44,2.17c.36.85.6,2.27,0,2.89-1,1-4.56.25-5.78-2.17-1-2,0-4.48,1.45-5.78,2.49-2.23,6.11-.87,6.5-.72,3.39,1.34,5.23,5.24,5,8.67a9.59,9.59,0,0,1-7.22,8.66c-5.49,1.1-10.11-4.91-13-8.66a24.08,24.08,0,0,1-4.33-9.39c-.67-2.42-.84-4.22,0-5.78.61-1.13,1.34-1.39,2.17-2.16,2.68-2.54,2.75-7.27,2.16-10.11-1-4.7-4.92-8.05-6.5-9.39-2.34-2-3.86-2.43-4.33-4.33-.53-2.16.72-4.48,2.17-5.78.39-.35,2.55-2.29,4.33-1.44,1.11.53,1.86,2.06,1.44,2.89s-2.27.37-2.88,1.44c-.52.9.22,2.26.72,2.89.85,1.07,2.45,1.88,3.61,1.44,1.86-.71,2.2-4.54,1.44-7.22-1.07-3.77-4.48-5.75-5.77-6.5-3-1.76-4-.9-5.78-2.16C32,273,31.32,261.87,36,257.55c2.07-1.91,4.38-1.71,7.22-5.05a7,7,0,0,0,.72-9.39c-1.86-3-3.94-3.35-5.78-5.05-4.83-4.49-5-15.49-.72-19.5.94-.88,2.34-1.65,6.5-5.05a13.89,13.89,0,0,0,2.17-2.17c1.08-1.37,2.35-3,2.16-5.05a4.65,4.65,0,0,0-2.16-3.61c-.13-.07-2.24-1.18-3.61,0a3.11,3.11,0,0,0,0,4.33c.81.66,1.89.16,2.16.72s-.46,1.72-1.44,2.17c-1.41.63-3.35-.21-4.33-1.45-1.81-2.28-.29-5.83,0-6.5.85-2,2.22-3.2,4.33-5,2.77-2.43,3.49-2.24,4.33-3.61,1.25-2,.74-4.29,0-7.94-1.39-6.87-2.09-10.3-2.17-11.56s-.42-9.21,5.06-15.16c1.43-1.56,5.65-6.13,10.83-5a8.89,8.89,0,0,1,6.5,5.77c1.58,4.83-1.66,10.71-5.78,11.56-1.93.39-4.6-.21-5.77-2.17-1.53-2.55,0-6.51,2.16-7.22,1.25-.42,2.85.22,2.89.72s-1,.47-1.44,1.44a3.1,3.1,0,0,0,0,2.17c.17.68.32,1.22.72,1.45.87.47,2.75-.71,3.61-2.17,1.3-2.2.77-5.8-1.45-7.22s-5,0-6.49.72c-5.46,2.7-7.07,8.75-7.22,9.39-.87,3.46-.25,6.34.72,10.83,1,4.66,2.21,6.47,2.16,10.83,0,3.85-1,5.25-1.44,5.78-1.26,1.55-2.69,1.66-2.89,2.88-.23,1.42,1.58,2,2.89,4.34a10.05,10.05,0,0,1,.72,7.94c-1.17,3.26-3.92,3.86-3.61,5.78.25,1.53,2.06,1.45,3.61,3.61,1.36,1.88,2.41,5.35.72,7.94s-5.61,3.82-7.94,2.16c-1.79-1.27-2.64-4.31-1.44-5.77C43.2,223.48,44.7,223.08,45.38,223.62Z"/><path class="cls-1" d="M282.68,222.89c-1,.75.24,2.85-.73,3.61-.69.55-2.2.16-2.88-.72-1-1.3,0-3.39.72-4.33a5.51,5.51,0,0,1,5-2.17c3.65.54,4.9,5.16,5.06,5.78a9.77,9.77,0,0,1-.73,6.5c-1.79,3.46-4.55,3.06-8.66,7.94a9.53,9.53,0,0,0-2.17,3.61,9.66,9.66,0,0,0,.73,6.5c1.63,3.7,3.72,3.45,7.22,7.94,1.82,2.35,3.37,4.34,3.61,7.22.26,3.28-1.17,7.75-4.34,8.67a5,5,0,0,1-5.05-1.45,4,4,0,0,1-.72-4.33c.46-.84,1.5-1.7,2.16-1.44,1.09.43.06,3.48,1.45,4.33a2.57,2.57,0,0,0,2.89-.72c1.36-1.53.44-4.78-1.45-6.5a5.7,5.7,0,0,0-4.33-1.44c-2.81.34-4.56,3-5.06,5.05a8.22,8.22,0,0,0,2.17,7.22c1.4,1.47,2.94,1.84,2.89,2.89,0,.8-1,1.06-2.17,2.16a10.32,10.32,0,0,0-2.89,5.06,8.75,8.75,0,0,0,1.45,6.5c1.82,2.33,4.21,2.24,4.33,3.61s-2.1,1.73-3.61,3.61c-.77,1-2.09,3.2,0,13.72,1.65,8.29,2.81,8.61,2.17,11.55-.81,3.73-3.32,6.22-6.5,9.39-2.52,2.51-4,4-5.78,3.61-2.33-.46-3.94-3.83-3.61-6.5,0-.32.38-2.79,2.17-3.61.87-.4,2-.38,2.16,0s-.88.85-1.44,2.17c-.36.84-.6,2.27,0,2.88,1,1,4.56.26,5.78-2.16,1-2,0-4.48-1.45-5.78-2.49-2.23-6.11-.87-6.5-.72-3.39,1.33-5.23,5.24-5.05,8.66a9.59,9.59,0,0,0,7.22,8.67c5.49,1.1,10.11-4.91,13-8.67a24,24,0,0,0,4.33-9.38c.67-2.42.84-4.22,0-5.78-.61-1.13-1.34-1.39-2.17-2.17-2.68-2.53-2.75-7.26-2.16-10.11,1-4.69,4.92-8,6.5-9.38,2.34-2,3.86-2.44,4.33-4.33.53-2.16-.72-4.48-2.17-5.78-.38-.35-2.55-2.3-4.33-1.44-1.11.53-1.86,2.05-1.44,2.88.48,1,2.27.38,2.88,1.45.52.9-.22,2.25-.72,2.89-.85,1.07-2.45,1.88-3.61,1.44-1.86-.71-2.2-4.54-1.44-7.22,1.07-3.77,4.48-5.75,5.77-6.5,3.05-1.77,4-.9,5.78-2.17,4.68-3.32,5.4-14.46.72-18.77-2.07-1.91-4.38-1.72-7.22-5a7,7,0,0,1-.72-9.39c1.86-3,3.94-3.35,5.78-5,4.83-4.49,5-15.49.72-19.5-.94-.88-2.34-1.65-6.5-5.05a14.36,14.36,0,0,1-2.17-2.17c-1.08-1.37-2.35-3-2.16-5.06A4.68,4.68,0,0,1,282,202c.13-.06,2.24-1.17,3.61,0a3.13,3.13,0,0,1,0,4.34c-.8.66-1.88.16-2.16.72s.46,1.72,1.44,2.16c1.41.64,3.35-.2,4.33-1.44,1.81-2.28.29-5.84,0-6.5-.85-2-2.22-3.2-4.33-5-2.77-2.44-3.49-2.25-4.33-3.61-1.25-2-.74-4.3,0-7.95,1.39-6.86,2.09-10.29,2.17-11.55s.42-9.21-5.06-15.16c-1.43-1.56-5.64-6.13-10.83-5.06a8.91,8.91,0,0,0-6.5,5.78c-1.58,4.83,1.66,10.71,5.78,11.55,1.93.4,4.6-.21,5.77-2.16,1.53-2.55,0-6.51-2.16-7.22-1.25-.42-2.85.22-2.89.72s1,.47,1.44,1.44a3.1,3.1,0,0,1,0,2.17c-.17.68-.31,1.22-.72,1.44-.87.48-2.75-.71-3.61-2.16-1.3-2.2-.77-5.81,1.45-7.22s5,0,6.49.72c5.46,2.7,7.07,8.75,7.23,9.39.86,3.46.24,6.34-.73,10.83-1,4.65-2.21,6.47-2.16,10.83,0,3.85,1,5.25,1.44,5.77,1.26,1.56,2.69,1.67,2.89,2.89.23,1.42-1.58,2-2.89,4.33a10.07,10.07,0,0,0-.72,8c1.18,3.26,3.92,3.86,3.61,5.77-.25,1.54-2.06,1.46-3.61,3.61-1.36,1.89-2.41,5.35-.72,7.95s5.61,3.82,7.94,2.16c1.79-1.27,2.65-4.32,1.44-5.77C284.86,222.76,283.36,222.36,282.68,222.89Z"/><ellipse class="cls-2" cx="164.89" cy="245.64" rx="131.78" ry="199.65"/><path class="cls-1" d="M59.83,153.58C65.07,137.45,75,115,94.39,94.66c6.87-7.22,16.71-17.48,33.11-24.88a99.1,99.1,0,0,1,31.79-8.29,84.47,84.47,0,0,1,27.81,2.07c.28.06.62.15,1,.26,9.93,2.65,27.12,11.89,40,24,24.5,23,37.87,60.05,39.62,65l7.94,2.89c-1.83-4.93-4.46-11.64-7.94-19.49-2.69-6.08-4.91-11.08-7.94-16.61a140.81,140.81,0,0,0-17.33-24.55c-5.87-6.69-14.35-16.35-28.26-24.69-7.12-4.27-24.49-15.42-48.5-14.35a110,110,0,0,0-32.29,6.26C105,72.5,89.24,91.92,83.13,99.64c-6.27,7.92-10.13,15-15.23,24.26a243.32,243.32,0,0,0-14.57,31.72Z"/><path class="cls-1" d="M270.34,341.2c-5.24,16.12-15.2,38.57-34.56,58.92-6.87,7.22-16.72,17.47-33.12,24.88a99.26,99.26,0,0,1-31.78,8.28,84.47,84.47,0,0,1-27.82-2.06l-1-.26c-9.93-2.66-27.12-11.9-40-24-24.5-23-37.86-60-39.62-65L54.44,339c1.84,4.93,4.46,11.65,7.94,19.5,2.7,6.08,4.91,11.07,7.95,16.61a140.22,140.22,0,0,0,17.33,24.55c5.86,6.68,14.35,16.35,28.25,24.69,7.12,4.27,24.5,15.42,48.5,14.34a109.61,109.61,0,0,0,32.29-6.26c28.44-10.19,44.23-29.61,50.34-37.32a143.71,143.71,0,0,0,15.23-24.26,182.69,182.69,0,0,0,14.17-36.07Z"/></svg>