<svg xmlns="http://www.w3.org/2000/svg" viewBox="0 0 329 492"><defs><style>.cls-1{fill:none;stroke:#000;stroke-miterlimit:10;stroke-width:2px;}</style></defs><g id="Layer_4" data-name="Layer 4"><path class="cls-1" d="M163.41,23.66c-2.23,2.24-8,5.54-12.92,8.81-13.31,8.85-22,7.9-32.33,15.89a45.57,45.57,0,0,0-11.91,14.15c-12.1.66-18.19,4.73-21.52,8.32-7.54,8.13-4.54,17.69-11,31.24a54.7,54.7,0,0,1-16.21,19.7V372.26a75.81,75.81,0,0,1,7.37,8.83c13.24,18.55,10.48,32.58,21.45,41.59,3.18,2.61,8.73,5.8,18.49,6.23a41.5,41.5,0,0,0,11.65,14.6c10.23,7.94,19.21,6.41,32.89,14.8,5.56,3.41,11.72,7,14,9.27,2.91-2.22,5.66-5.69,12.35-8.82,13.67-6.39,21.22-5.07,30.63-11.42,3.65-2.45,8.81-6.89,13.28-15.24,11.94-1.89,18.25-6.58,21.8-10.51,8.09-8.95,6.07-18.57,14.8-33.44A69.35,69.35,0,0,1,268.38,373V121.77a69.69,69.69,0,0,1-12.66-15.86c-10-17.21-7.23-30-17.54-38.37-3-2.39-8.3-5.44-17.81-5.68a33,33,0,0,0-8.5-14c-9.76-9.34-20.79-7-38.23-16.14C168,28.72,166,25.65,163.41,23.66Z"/><path class="cls-1" d="M163.41,41.63c-11.87,4.75-22.66,9.5-34.54,14.25a19.55,19.55,0,0,0-13.48,21.19c-2.44-1.51-8.58-4.81-14.74-2.78-5.32,1.75-8,6.6-11.82,13.74-3.68,6.87-4.09,10.31-6.42,16.06a68.53,68.53,0,0,1-13.35,20.73V366.28a36.34,36.34,0,0,1,11.81,13.78c4.42,9.3,1.28,14.16,6.59,24,2,3.64,5.38,9.75,12.44,12.43a21.43,21.43,0,0,0,12.68.58,16,16,0,0,0,14.74,11.84L163,454.78l36-25.87a12.94,12.94,0,0,0,7.83-2.71,13.22,13.22,0,0,0,4.8-9.13c2.45.79,10.6,3.08,18.51-1,5.71-2.92,8.53-7.73,10.1-10.49,5.45-9.56,2.3-15.38,7-25.26a36.56,36.56,0,0,1,9.31-12V124.82a64.17,64.17,0,0,1-9.94-16.71c-3.82-9.54-2.85-14.14-7.92-23.44-2.82-5.18-5.16-9.33-10.1-11.66-6.83-3.22-14-.75-16.26.15a17.82,17.82,0,0,0-1.75-11.95,17.47,17.47,0,0,0-6.67-6.75C190.72,50.18,176.52,45.91,163.41,41.63Z"/><path class="cls-1" d="M243.41,229.52c-1.36,1.06-.23,3.8-1,4.15s-2.64-1.24-2.7-2.9c-.07-2.45,4.11-5.3,8.09-5.8,7.7-1,15.19,6.78,18.2,9.91,2.14,2.22,2.78,3.54,5.59,5.79,2.34,1.88,4.09,2.7,4,4s-1.88,1.76-3.73,3.11c-3.25,2.37-3.57,5.1-5.39,8.08a20.34,20.34,0,0,1-16,9.32c-4.32.1-9.75-1.67-10.36-4.56-.39-1.82,1.16-4,1.86-3.93s.36,1.85,1.66,2.69a2.41,2.41,0,0,0,2.69,0c1-.9.49-3.24-.62-4.56a5.2,5.2,0,0,0-6-1.24c-2.92,1.54-3.37,6.92-1.49,10.09,2.77,4.68,10.43,4.17,13.1,4,7.69-.51,16.71-5,19.09-11.19a17,17,0,0,1,2.66-5.18,15.21,15.21,0,0,1,4.9-4.27c2.28-1.21,3.65-1.09,3.79-1.89s-.8-1.23-4.27-3.8a48.65,48.65,0,0,1-4.09-3.21,19.52,19.52,0,0,1-3.5-4.66c-2.84-4.88-14.64-14.26-24.59-11.59-3.24.87-7.74,3.4-8.32,7.32-.37,2.52.8,6.12,3.55,7a5,5,0,0,0,5.39-1.86c1-1.44,1.24-3.87,0-4.77A2.24,2.24,0,0,0,243.41,229.52Z"/><path class="cls-1" d="M162.77,39.61l-2.52,2a10.89,10.89,0,0,1,1.7,5.11,11,11,0,0,1-1.7,6.62,6.4,6.4,0,0,1,1.53,7,6.26,6.26,0,0,1-3.57,3.23l4.75,9-.19,5.6-8.46-16.47a7.38,7.38,0,0,0,3.23-3.56,7.51,7.51,0,0,0,0-5.6,11,11,0,0,0,1.35-6.12,8.19,8.19,0,0,0-1.67-4.24c1.86-2.09,3.88-4.7,5.74-6.79Z"/><path class="cls-1" d="M163.41,39.37,166,41.63c-.55.87-.88,2.66-1,5.11-.23,3.33.54,5.36,1.08,6.21-1.91,1.94-1.89,5.12-.91,7.37a6.26,6.26,0,0,0,3.57,3.23l-4.75,9-.15,5.39,8.8-16.26a7.38,7.38,0,0,1-3.23-3.56,7.51,7.51,0,0,1,0-5.6,10.85,10.85,0,0,1,.17-10.89l-5.59-6.26Z"/><path class="cls-1" d="M127.54,70.56c-.75.2-3.44.82-5.5-.55-.44-.29-2.1-1.39-1.93-2.53,0,0,0-.06,0-.09.07-.32.38-1.06,2.09-2A12.34,12.34,0,0,1,128.08,64a2.08,2.08,0,0,0,.85-2.66,15.23,15.23,0,0,1-5.68-8.16c-.48-1.83-1.23-4.74.42-7.13s4.81-2.81,5.62-2.9a9.17,9.17,0,0,1,4.66.72c1.3.58,3.06,1.37,3.68,3.27a5.13,5.13,0,0,1-.78,4.35,4.1,4.1,0,0,1-3.33,1.93c-1.7-.08-2.73-3-1.81-3.68a2.71,2.71,0,0,1,1.39-.55,1.63,1.63,0,0,0,.36-1.69,1.79,1.79,0,0,0-1.45-.91,2.93,2.93,0,0,0-2,.54,4.83,4.83,0,0,0-1.88,3.27,5.68,5.68,0,0,0,8.53,5.84,7.17,7.17,0,0,0,3.44-4.09,12.44,12.44,0,0,0,5.26,4.29c2.43,1.05,10.42,1.45,13.66-1.63a10.05,10.05,0,0,0,3-7.67,9.52,9.52,0,0,0-3.6-7.5A9.14,9.14,0,0,0,152,38a6.66,6.66,0,0,0-4.66,2.12,6.86,6.86,0,0,0-1.51,5.74,6,6,0,0,0,3.93,3.56,5.55,5.55,0,0,0,3.69-.42,1.54,1.54,0,0,0,.24-2.24,3.19,3.19,0,0,1-2.78.28A3.23,3.23,0,0,1,149,44.93a3.28,3.28,0,0,1,.24-2.48c.93-1.57,3.19-1.48,3.86-1.46a5,5,0,0,1,3.57,1.46c1.65,1.75,1.75,7.56-.18,9.85a6.63,6.63,0,0,1-6.89,2,14.29,14.29,0,0,1-4.89-2,13.52,13.52,0,0,1-3-2.6c-1.55-1.84-1.73-3.18-2.5-4.62s-2.53-3.49-6.33-5a11.59,11.59,0,0,0-8.7,2,11.4,11.4,0,0,0-4.42,7.07,11.92,11.92,0,0,0,4.9,11.36,9.17,9.17,0,0,0-6,3.69c-.48.73-1.86,2.82-1.14,5.08a5.5,5.5,0,0,0,2.49,2.88c2.87,1.86,8.11.65,8.33.2A1.43,1.43,0,0,0,127.54,70.56Z"/><path class="cls-1" d="M198.94,70.56c.75.2,3.45.82,5.5-.55.44-.29,2.1-1.39,1.93-2.53a.24.24,0,0,0,0-.09c-.07-.32-.38-1.06-2.09-2A12.31,12.31,0,0,0,198.4,64a2.18,2.18,0,0,1-.91-1.09,2.15,2.15,0,0,1,.06-1.57,15.23,15.23,0,0,0,5.68-8.16c.48-1.83,1.24-4.74-.42-7.13s-4.81-2.81-5.62-2.9a9.12,9.12,0,0,0-4.65.72c-1.31.58-3.06,1.37-3.69,3.27a5.13,5.13,0,0,0,.78,4.35A4.1,4.1,0,0,0,193,53.45c1.7-.08,2.73-3,1.81-3.68a2.68,2.68,0,0,0-1.39-.55,1.63,1.63,0,0,1-.36-1.69,1.79,1.79,0,0,1,1.45-.91,3,3,0,0,1,2.06.54,4.8,4.8,0,0,1,1.87,3.27,5.68,5.68,0,0,1-8.53,5.84,7.17,7.17,0,0,1-3.44-4.09,12.37,12.37,0,0,1-5.26,4.29c-2.43,1.05-10.42,1.45-13.66-1.63a10.1,10.1,0,0,1-3-7.67,9.54,9.54,0,0,1,3.61-7.5,9.1,9.1,0,0,1,6.4-1.63,6.66,6.66,0,0,1,4.66,2.12,6.82,6.82,0,0,1,1.51,5.74,6,6,0,0,1-3.93,3.56,5.56,5.56,0,0,1-3.69-.42,1.55,1.55,0,0,1-.24-2.24,3.2,3.2,0,0,0,2.78.28,3.25,3.25,0,0,0,1.88-2.15,3.3,3.3,0,0,0-.25-2.48c-.93-1.57-3.18-1.48-3.86-1.46a5,5,0,0,0-3.57,1.46c-1.64,1.75-1.75,7.56.18,9.85a6.64,6.64,0,0,0,6.89,2,14.4,14.4,0,0,0,4.9-2,13.62,13.62,0,0,0,3-2.6c1.55-1.84,1.73-3.18,2.51-4.62s2.52-3.49,6.32-5a11.61,11.61,0,0,1,8.71,2,11.45,11.45,0,0,1,4.41,7.07,11.9,11.9,0,0,1-4.9,11.36,9.15,9.15,0,0,1,6,3.69c.48.73,1.87,2.82,1.15,5.08a5.55,5.55,0,0,1-2.5,2.88c-2.87,1.86-8.11.65-8.32.2A1.41,1.41,0,0,1,198.94,70.56Z"/><path class="cls-1" d="M162.94,456.13l-2.52-2a10.92,10.92,0,0,0,1.7-5.11,11.07,11.07,0,0,0-1.7-6.62,6.4,6.4,0,0,0,1.53-7,6.23,6.23,0,0,0-3.57-3.22l4.75-9-.19-5.6-8.46,16.47a7.38,7.38,0,0,1,3.23,3.56,7.51,7.51,0,0,1,0,5.6,11,11,0,0,1,1.35,6.11,8.2,8.2,0,0,1-1.67,4.25c1.86,2.09,3.88,4.7,5.74,6.79Z"/><path class="cls-1" d="M163.58,456.38l2.54-2.27c-.55-.86-.88-2.65-1.05-5.11-.23-3.32.54-5.35,1.08-6.2-1.91-1.94-1.89-5.13-.91-7.38a6.23,6.23,0,0,1,3.57-3.22l-4.75-9-.15-5.39,8.8,16.26a7.38,7.38,0,0,0-3.23,3.56,7.51,7.51,0,0,0,0,5.6,10.84,10.84,0,0,0,.17,10.88l-5.59,6.27Z"/><path class="cls-1" d="M127.71,425.19c-.75-.2-3.44-.82-5.5.54-.44.29-2.1,1.4-1.93,2.54,0,0,0,.06,0,.09.07.31.38,1.06,2.09,2a12.46,12.46,0,0,0,5.86,1.39,2.08,2.08,0,0,1,.91,1.09,2.15,2.15,0,0,1-.06,1.57,15.19,15.19,0,0,0-5.68,8.16c-.48,1.83-1.23,4.74.42,7.13s4.81,2.81,5.62,2.9a9.22,9.22,0,0,0,4.66-.73c1.3-.57,3.06-1.36,3.68-3.26a5.12,5.12,0,0,0-.78-4.35,4.13,4.13,0,0,0-3.33-1.94c-1.7.08-2.73,3-1.81,3.69a2.71,2.71,0,0,0,1.39.55,1.63,1.63,0,0,1,.36,1.69,1.75,1.75,0,0,1-1.45.9,2.83,2.83,0,0,1-2.05-.54,4.79,4.79,0,0,1-1.88-3.26,5.69,5.69,0,0,1,8.53-5.85,7.2,7.2,0,0,1,3.44,4.09,12.51,12.51,0,0,1,5.26-4.29c2.43-1,10.42-1.45,13.66,1.63a10.06,10.06,0,0,1,3,7.68,9.52,9.52,0,0,1-3.6,7.5,9.19,9.19,0,0,1-6.41,1.63,6.66,6.66,0,0,1-4.66-2.12,6.86,6.86,0,0,1-1.51-5.74,6,6,0,0,1,3.93-3.57,5.6,5.6,0,0,1,3.69.43,1.53,1.53,0,0,1,.24,2.23,3.08,3.08,0,0,0-4.65,1.88,3.29,3.29,0,0,0,.24,2.48c.93,1.57,3.19,1.48,3.86,1.45a5,5,0,0,0,3.57-1.45c1.65-1.75,1.75-7.56-.18-9.86a6.65,6.65,0,0,0-6.89-2,14.44,14.44,0,0,0-4.89,2,13.72,13.72,0,0,0-3,2.61c-1.55,1.84-1.73,3.18-2.5,4.62s-2.53,3.49-6.33,5a11.58,11.58,0,0,1-8.7-2,11.43,11.43,0,0,1-4.42-7.07,11.94,11.94,0,0,1,4.9-11.37,9.12,9.12,0,0,1-6-3.68c-.48-.73-1.86-2.82-1.14-5.08a5.53,5.53,0,0,1,2.49-2.89c2.87-1.85,8.11-.64,8.33-.19A1.43,1.43,0,0,1,127.71,425.19Z"/><path class="cls-1" d="M199.11,425.19c.75-.2,3.45-.82,5.5.54.44.29,2.1,1.4,1.93,2.54a.24.24,0,0,1,0,.09c-.07.31-.38,1.06-2.09,2a12.43,12.43,0,0,1-5.86,1.39,2.08,2.08,0,0,0-.85,2.66,15.19,15.19,0,0,1,5.68,8.16c.48,1.83,1.24,4.74-.42,7.13s-4.81,2.81-5.62,2.9a9.17,9.17,0,0,1-4.65-.73c-1.31-.57-3.06-1.36-3.69-3.26a5.12,5.12,0,0,1,.78-4.35,4.13,4.13,0,0,1,3.33-1.94c1.7.08,2.73,3,1.81,3.69a2.68,2.68,0,0,1-1.39.55,1.63,1.63,0,0,0-.36,1.69,1.75,1.75,0,0,0,1.45.9,2.87,2.87,0,0,0,2.06-.54,4.77,4.77,0,0,0,1.87-3.26,5.69,5.69,0,0,0-8.53-5.85,7.2,7.2,0,0,0-3.44,4.09,12.51,12.51,0,0,0-5.26-4.29c-2.43-1-10.42-1.45-13.66,1.63a10.1,10.1,0,0,0-3,7.68,9.54,9.54,0,0,0,3.61,7.5,9.16,9.16,0,0,0,6.4,1.63,6.66,6.66,0,0,0,4.66-2.12,6.82,6.82,0,0,0,1.51-5.74,6,6,0,0,0-3.93-3.57,5.61,5.61,0,0,0-3.69.43,1.54,1.54,0,0,0-.24,2.23,3.21,3.21,0,0,1,2.78-.27,3.25,3.25,0,0,1,1.88,2.15,3.3,3.3,0,0,1-.25,2.48c-.93,1.57-3.18,1.48-3.86,1.45A5,5,0,0,1,170,453.3c-1.64-1.75-1.75-7.56.18-9.86a6.65,6.65,0,0,1,6.89-2,14.55,14.55,0,0,1,4.9,2,13.82,13.82,0,0,1,3,2.61c1.55,1.84,1.73,3.18,2.51,4.62s2.52,3.49,6.32,5a11.61,11.61,0,0,0,8.71-2,11.48,11.48,0,0,0,4.41-7.07,11.92,11.92,0,0,0-4.9-11.37,9.12,9.12,0,0,0,6.05-3.68c.48-.73,1.87-2.82,1.15-5.08a5.58,5.58,0,0,0-2.5-2.89c-2.87-1.85-8.11-.64-8.32-.19A1.42,1.42,0,0,0,199.11,425.19Z"/><path class="cls-1" d="M85,229.52c1.37,1.06.24,3.8,1,4.15s2.64-1.24,2.69-2.9c.08-2.45-4.1-5.3-8.08-5.8-7.71-1-15.19,6.78-18.2,9.91-2.14,2.22-2.78,3.54-5.59,5.79-2.34,1.88-4.09,2.7-4,4s1.88,1.76,3.73,3.11c3.25,2.37,3.57,5.1,5.38,8.08a20.38,20.38,0,0,0,16,9.32c4.32.1,9.75-1.67,10.36-4.56.39-1.82-1.16-4-1.87-3.93s-.36,1.85-1.65,2.69a2.43,2.43,0,0,1-2.7,0c-1-.9-.48-3.24.63-4.56a5.19,5.19,0,0,1,6-1.24c2.92,1.54,3.38,6.92,1.5,10.09-2.77,4.68-10.43,4.17-13.1,4-7.69-.51-16.71-5-19.09-11.19a17.08,17.08,0,0,0-2.67-5.18A15,15,0,0,0,50.44,247c-2.28-1.21-3.65-1.09-3.79-1.89s.8-1.23,4.27-3.8A45,45,0,0,0,55,238.11a19.37,19.37,0,0,0,3.51-4.66c2.84-4.88,14.64-14.26,24.59-11.59,3.24.87,7.74,3.4,8.32,7.32.37,2.52-.8,6.12-3.55,7a4.94,4.94,0,0,1-5.39-1.86c-1-1.44-1.24-3.87,0-4.77A2.22,2.22,0,0,1,85,229.52Z"/><path class="cls-1" d="M51,234.5a16.09,16.09,0,0,1,8.21-.65,17.3,17.3,0,0,1,6.24,2.34,12.13,12.13,0,0,1,3.9,3.72,12.42,12.42,0,0,1,1.87,4.74,10,10,0,0,1-1.3,5.06,10.86,10.86,0,0,1-4.5,4,16.71,16.71,0,0,1-7,2.08,19.45,19.45,0,0,1-9.32-1.66c-7.06-3.13-7.83-8.35-13.39-9.23a11,11,0,0,0-5.66.69,7.29,7.29,0,0,0-2.62,3.21c-1,2.47-.74,6.15,1.66,7.72a4.62,4.62,0,0,0,5.28-.09c1.45-1.22,2-3.72,1-4.7a1.57,1.57,0,0,0-1.64-.4c-1,.49-.36,2.44-1.43,3a1.72,1.72,0,0,1-1.76-.2,2.25,2.25,0,0,1-.74-1.63,3.49,3.49,0,0,1,.18-1.63,4.77,4.77,0,0,1,2.09-3.21,4.46,4.46,0,0,1,3.06-.35c4.32.81,6.11,5.36,11,8.57a20.51,20.51,0,0,0,10.43,3.14,21.72,21.72,0,0,0,11-2.62,15.27,15.27,0,0,0,5.3-5.65,11.22,11.22,0,0,0,1.67-6.16,11.87,11.87,0,0,0-2.77-6.48,15.64,15.64,0,0,0-5-4.55,21.84,21.84,0,0,0-6.24-2.15c-2-.36-9.11-1.66-14.21,2.21-2.39,1.81-4.15,4.62-7.87,7.57a6,6,0,0,1-3.09,1.4A5.65,5.65,0,0,1,32,242a4.8,4.8,0,0,1-1.86-1.86,4.71,4.71,0,0,1-.58-2.16,2,2,0,0,1,.58-2,1.72,1.72,0,0,1,1.83-.34c.92.55.23,2.32,1.2,2.95a1.55,1.55,0,0,0,1.7-.11c1.11-.9.86-4.35-1.23-5.64-1.8-1.12-4,0-4.2.05a6,6,0,0,0-2.39,2.8,6.58,6.58,0,0,0,1.57,6.65,7.56,7.56,0,0,0,3.6,2,13.07,13.07,0,0,0,3,.32c2.38,0,4.57-1.84,6-3C46.51,237.32,49.13,235.16,51,234.5Z"/><path class="cls-1" d="M275.53,234.11a16.2,16.2,0,0,0-8.22-.64,17.26,17.26,0,0,0-6.23,2.33,12.24,12.24,0,0,0-5.77,8.47,9.86,9.86,0,0,0,1.3,5.06,10.86,10.86,0,0,0,4.5,4,16.71,16.71,0,0,0,7,2.08,19.58,19.58,0,0,0,9.32-1.66c7.06-3.14,7.83-8.35,13.38-9.24a11.08,11.08,0,0,1,5.67.7,7.29,7.29,0,0,1,2.62,3.21c1,2.47.74,6.15-1.66,7.72a4.62,4.62,0,0,1-5.28-.09c-1.45-1.23-2-3.73-1-4.7a1.57,1.57,0,0,1,1.64-.4c1,.48.36,2.44,1.43,3a1.74,1.74,0,0,0,1.76-.2,2.27,2.27,0,0,0,.74-1.64,3.51,3.51,0,0,0-.18-1.63,4.73,4.73,0,0,0-2.09-3.2,4.41,4.41,0,0,0-3.06-.35c-4.32.8-6.11,5.36-11,8.56a20.55,20.55,0,0,1-10.43,3.15,21.72,21.72,0,0,1-11-2.62,15.45,15.45,0,0,1-5.31-5.65,11.34,11.34,0,0,1-1.66-6.16,11.87,11.87,0,0,1,2.77-6.49,15.58,15.58,0,0,1,5-4.54,22.12,22.12,0,0,1,6.24-2.16c2-.35,9.11-1.65,14.21,2.22,2.39,1.81,4.15,4.62,7.87,7.57a6.12,6.12,0,0,0,3.09,1.4,5.74,5.74,0,0,0,3.37-.64,4.72,4.72,0,0,0,2.45-4,2,2,0,0,0-.58-2,1.73,1.73,0,0,0-1.83-.35c-.92.55-.23,2.32-1.2,3a1.56,1.56,0,0,1-1.7-.11c-1.11-.9-.86-4.35,1.23-5.65,1.8-1.11,4,0,4.2.06a6,6,0,0,1,2.39,2.8,6.58,6.58,0,0,1-1.57,6.65,7.65,7.65,0,0,1-3.6,2,13.07,13.07,0,0,1-3,.32c-2.38,0-4.57-1.85-6-3C280,236.93,277.34,234.78,275.53,234.11Z"/><path class="cls-1" d="M45.93,195.24a1.57,1.57,0,0,1-.62-.87,1.59,1.59,0,0,1,.39-1.32c.75-.79,2.67-.5,3.9.33,2.36,1.59,2.17,5.09,2,6a6.46,6.46,0,0,1-.55,1.48,4.7,4.7,0,0,1-.47.73,7.1,7.1,0,0,1-5.31,2.35c-4-.12-6.17-4.2-6.32-4.5a9.34,9.34,0,0,1-.67-5.75,13.56,13.56,0,0,1,4.94-8.23,12.58,12.58,0,0,1-2.84-11.67,10.4,10.4,0,0,1,5.24-6.88,9.39,9.39,0,0,1,4.78-.9,6.84,6.84,0,0,1,4.94,1.64c2.93,2.79,2.19,8.31-.18,9.93a11,11,0,0,1-5,1.21H50a4.14,4.14,0,0,1-3.23-1.56,3,3,0,0,1,.28-3.61,1.87,1.87,0,0,1,2.15-.34c.69.58-.13,1.93.47,2.42s3.24-.3,3.54-1.91a2.88,2.88,0,0,0-1.05-2.39,4.72,4.72,0,0,0-2.54-1.2A6,6,0,0,0,45,172a7.08,7.08,0,0,0-2,5.07c.08,1.18.46,2.8,3.61,5.88,2,1.92,8.47,6,9.87,9a15.25,15.25,0,0,1,1.34,5.32,15.69,15.69,0,0,1-2.2,8.8c-.83,1.36-4.13,8.19-3.69,12.31a20.71,20.71,0,0,0,3.64,9.71c1.14,1.7,1.37,2.16,1.26,2.36s-1.45.12-2.65-.56c-2.08-1.2-3-3.43-3.78-5.65a26.41,26.41,0,0,1-1.16-4.45c-.66-3.59,1.86-11.46,2.69-13.45a30.83,30.83,0,0,0,1.7-5.48,14.39,14.39,0,0,0-.45-7.93,6.16,6.16,0,0,0-8.32-3.33,5.47,5.47,0,0,0-1.11,9.91,3.36,3.36,0,0,0,4-.9c.55-.78.77-2.07.23-2.62S46.81,195.94,45.93,195.24Z"/><path class="cls-1" d="M45.93,294.82a1.41,1.41,0,0,0-.23,2.2c.75.78,2.67.49,3.9-.34,2.36-1.59,2.17-5.08,2-6A6.7,6.7,0,0,0,51,289.2a4.64,4.64,0,0,0-.47-.72,7.1,7.1,0,0,0-5.31-2.36c-4,.12-6.17,4.21-6.32,4.51a9.31,9.31,0,0,0-.67,5.74,13.53,13.53,0,0,0,4.94,8.23,12.6,12.6,0,0,0-2.84,11.67,10.44,10.44,0,0,0,5.24,6.89,9.5,9.5,0,0,0,4.78.9,6.86,6.86,0,0,0,4.94-1.65c2.93-2.78,2.19-8.3-.18-9.93a11.11,11.11,0,0,0-5-1.21H50a4.14,4.14,0,0,0-3.23,1.56,3,3,0,0,0,.28,3.62,1.88,1.88,0,0,0,2.15.33c.69-.57-.13-1.92.47-2.42s3.24.3,3.54,1.91a2.92,2.92,0,0,1-1.05,2.4,4.89,4.89,0,0,1-2.54,1.2A5.94,5.94,0,0,1,45,318.05,7.06,7.06,0,0,1,43,313c.08-1.18.46-2.79,3.61-5.88,2-1.92,8.47-6,9.87-9a15.2,15.2,0,0,0,1.34-5.31,15.72,15.72,0,0,0-2.2-8.81c-.83-1.36-4.13-8.19-3.69-12.31A20.78,20.78,0,0,1,55.6,262c1.14-1.7,1.37-2.16,1.26-2.36s-1.45-.12-2.65.57c-2.08,1.19-3,3.42-3.78,5.65a26.25,26.25,0,0,0-1.16,4.44c-.66,3.6,1.86,11.47,2.69,13.45a30.91,30.91,0,0,1,1.7,5.49,14.06,14.06,0,0,1,.31,4.33,14.4,14.4,0,0,1-.76,3.6,6.17,6.17,0,0,1-8.32,3.32,5.47,5.47,0,0,1-1.11-9.91,3.38,3.38,0,0,1,4,.9c.55.79.77,2.08.23,2.63S46.81,294.13,45.93,294.82Z"/><path class="cls-1" d="M280.31,194.47a1.66,1.66,0,0,0,.62-.87,1.59,1.59,0,0,0-.39-1.32c-.75-.79-2.67-.5-3.9.33-2.36,1.59-2.17,5.09-2,6a6.39,6.39,0,0,0,.54,1.48,6.5,6.5,0,0,0,.48.73,7.1,7.1,0,0,0,5.31,2.35c4-.12,6.17-4.2,6.32-4.5a9.34,9.34,0,0,0,.67-5.75,13.58,13.58,0,0,0-4.94-8.23A12.6,12.6,0,0,0,285.9,173a10.44,10.44,0,0,0-5.24-6.89,9.5,9.5,0,0,0-4.79-.89,6.77,6.77,0,0,0-4.93,1.64c-2.94,2.79-2.19,8.31.18,9.93a11.08,11.08,0,0,0,5,1.21h.12a4.15,4.15,0,0,0,3.24-1.56,3,3,0,0,0-.28-3.62,1.88,1.88,0,0,0-2.15-.33c-.69.57.13,1.93-.47,2.42s-3.24-.3-3.54-1.91a2.89,2.89,0,0,1,1.05-2.4,4.76,4.76,0,0,1,2.54-1.19,6,6,0,0,1,4.63,1.81,7.08,7.08,0,0,1,2,5.07c-.08,1.18-.46,2.79-3.61,5.88-2,1.92-8.47,5.95-9.87,9a15,15,0,0,0-1.34,5.31,15.72,15.72,0,0,0,2.2,8.81c.82,1.36,4.13,8.19,3.69,12.31a20.71,20.71,0,0,1-3.64,9.71c-1.14,1.7-1.38,2.16-1.26,2.36s1.45.12,2.64-.57c2.09-1.19,3-3.42,3.78-5.64A25.6,25.6,0,0,0,277,219c.66-3.6-1.86-11.47-2.69-13.45a30.83,30.83,0,0,1-1.7-5.48,14.16,14.16,0,0,1-.31-4.34,14,14,0,0,1,.76-3.6,6.16,6.16,0,0,1,8.31-3.32,5.47,5.47,0,0,1,1.12,9.91,3.38,3.38,0,0,1-4-.9c-.55-.78-.78-2.08-.24-2.62S279.43,195.16,280.31,194.47Z"/><path class="cls-1" d="M280.31,294.05a1.66,1.66,0,0,1,.62.87,1.59,1.59,0,0,1-.39,1.32c-.75.79-2.67.5-3.9-.33-2.36-1.59-2.17-5.09-2-6a6.39,6.39,0,0,1,.54-1.48,6.5,6.5,0,0,1,.48-.73,7.1,7.1,0,0,1,5.31-2.35c4,.12,6.17,4.2,6.32,4.51a9.3,9.3,0,0,1,.67,5.74,13.58,13.58,0,0,1-4.94,8.23,12.6,12.6,0,0,1,2.84,11.67,10.44,10.44,0,0,1-5.24,6.89,9.5,9.5,0,0,1-4.79.89,6.77,6.77,0,0,1-4.93-1.64c-2.94-2.79-2.19-8.3.18-9.93a11.08,11.08,0,0,1,5-1.21h.12a4.15,4.15,0,0,1,3.24,1.56,3,3,0,0,1-.28,3.62A1.88,1.88,0,0,1,277,316c-.69-.57.13-1.92-.47-2.42s-3.24.3-3.54,1.91a2.89,2.89,0,0,0,1.05,2.4,4.76,4.76,0,0,0,2.54,1.19,6,6,0,0,0,4.63-1.81,7.06,7.06,0,0,0,2-5.07c-.08-1.18-.46-2.79-3.61-5.88-2-1.92-8.47-5.95-9.87-9a15,15,0,0,1-1.34-5.31,15.72,15.72,0,0,1,2.2-8.81c.82-1.36,4.13-8.19,3.69-12.31a20.71,20.71,0,0,0-3.64-9.71c-1.14-1.7-1.38-2.16-1.26-2.36s1.45-.12,2.64.57c2.09,1.19,3,3.42,3.78,5.64a25.6,25.6,0,0,1,1.17,4.45c.66,3.6-1.86,11.47-2.69,13.45a30.83,30.83,0,0,0-1.7,5.48,14.16,14.16,0,0,0-.31,4.34,14,14,0,0,0,.76,3.6,6.16,6.16,0,0,0,8.31,3.32,5.47,5.47,0,0,0,1.12-9.91,3.38,3.38,0,0,0-4,.9c-.55.78-.78,2.08-.24,2.62S279.43,293.36,280.31,294.05Z"/></g></svg>