<svg id="Layer_3" data-name="Layer 3" xmlns="http://www.w3.org/2000/svg" viewBox="0 0 329 492"><defs><style>.cls-1{fill:none;stroke:#000;stroke-miterlimit:10;stroke-width:2px;}</style></defs><path class="cls-1" d="M188.88,18.59a17.18,17.18,0,0,0-33.4,0,87.83,87.83,0,0,1-30.36,46.88,87.27,87.27,0,0,1-46.3,18.21c.9.82,14.72,13.8,11.39,32.64A35.94,35.94,0,0,1,64.4,144.4V349.33a32.12,32.12,0,0,1,14.42,59.2c4.6.46,51.93,5.83,68.31,41.75a60.27,60.27,0,0,1,5.31,23.13c.35.74,4.94,10.26,15.18,11.78,8.46,1.26,17.16-3.46,21.26-11.78A68.92,68.92,0,0,1,197.21,448c18.9-33.32,60.09-38.1,66-38.7-11.92-11.3-15.88-28.07-10.13-41.86,6.15-14.73,20.72-19.64,23-20.38V144.4c-2.19-1-16.54-8.16-21.25-25.05-5.36-19.19,6.42-34.23,7.59-35.67-5.36-.14-34.31-1.4-55.41-25.05A75.59,75.59,0,0,1,188.88,18.59Z"/><path class="cls-1" d="M183.19,42.88c-.36-.56-4.29-6.36-11.62-6.64-8-.3-12.51,6.3-12.74,6.64a101.36,101.36,0,0,1-31.55,31.56A101.23,101.23,0,0,1,91.85,88.28c1.27,1.63,11.69,15.38,7.19,33.22-5,20-24.17,26.7-25.46,27.12V343.5c1.9.62,18.7,6.41,24.91,24.36,6.56,19-4.54,34.62-5.54,36a83.38,83.38,0,0,1,65.33,46,18.06,18.06,0,0,0,24.91,0,92.46,92.46,0,0,1,36.54-36A89.54,89.54,0,0,1,248,404.39a48.89,48.89,0,0,1,18.82-62.55V149.73c-2.34-1-17.51-7.9-23.25-25.46-6-18.33,3.14-33.4,4.43-35.44a103.12,103.12,0,0,1-38.76-17.71A102.79,102.79,0,0,1,183.19,42.88Z"/><path class="cls-1" d="M87.87,220.13c-.66-.58-1.75.47-2.89-.08a2.75,2.75,0,0,1-1.26-2.89c.31-1.61,2.18-2.42,3.56-2.37,2.48.09,3.73,3,3.85,3.26a6.74,6.74,0,0,1-9.79,8.31c-4.68-2.76-4.21-10.71-5.34-10.68-1.34,0-3.51,5-1.78,8,.49.86,1,1,1.82,1.82a12.24,12.24,0,0,1,3.52,8.37c-.09,5.37-5.77,8.68-4.79,10,.32.43,8.24.6,9.66,0,2.74-1.16,2.54-4.47,4.56-4.68.47-.05,7.45,4.55,8.38,4.68,1.12.16,5.5.42,5.84,0s-.22-1.68-.37-2c-1-1.9-10.56-7.19-12.21-7.11a7.61,7.61,0,0,0-4.8,2.13c-1.39,1.39-1.64,2.9-2.55,2.88-.68,0-1.37-.86-1.48-1.66-.17-1.24,1.13-1.66,1.54-3.17.6-2.2-1.54-3.62-.92-4.74.74-1.31,3.82.44,7.11-.73a9.67,9.67,0,0,0,5.91-8c0-.33.5-5.6-3.54-8.56-2-1.47-5.71-2.81-8.56-.92a6.18,6.18,0,0,0-2.74,5.11,6,6,0,0,0,2.92,5.1c1.08.64,3.22,1.37,4.19.37A2,2,0,0,0,87.87,220.13Z"/><path class="cls-1" d="M87.87,268.39c-.66.59-1.75-.47-2.89.08a2.76,2.76,0,0,0-1.26,2.89c.31,1.61,2.18,2.42,3.56,2.37,2.48-.09,3.73-3,3.85-3.26a6.74,6.74,0,0,0-9.79-8.31c-4.68,2.76-4.21,10.71-5.34,10.68-1.34,0-3.51-5-1.78-8,.49-.86,1-1,1.82-1.82a12.24,12.24,0,0,0,3.52-8.37c-.09-5.37-5.77-8.68-4.79-10,.32-.43,8.24-.6,9.66,0,2.74,1.16,2.54,4.47,4.56,4.68.47,0,7.45-4.55,8.38-4.68,1.12-.16,5.5-.42,5.84,0s-.22,1.68-.37,1.95c-1,1.9-10.56,7.19-12.21,7.11a7.61,7.61,0,0,1-4.8-2.13c-1.39-1.39-1.64-2.9-2.55-2.88-.68,0-1.37.86-1.48,1.67-.17,1.23,1.13,1.65,1.54,3.16.6,2.2-1.54,3.62-.92,4.74.74,1.31,3.82-.44,7.11.73a9.67,9.67,0,0,1,5.91,8c0,.33.5,5.6-3.54,8.56-2,1.47-5.71,2.81-8.56.92a6.18,6.18,0,0,1-2.74-5.11,6,6,0,0,1,2.92-5.1c1.08-.64,3.22-1.37,4.19-.37A2,2,0,0,1,87.87,268.39Z"/><path class="cls-1" d="M252.5,215.38c.66-.58,1.75.47,2.89-.08a2.77,2.77,0,0,0,1.26-2.89c-.31-1.61-2.18-2.42-3.56-2.37-2.48.09-3.73,3-3.86,3.26a6.75,6.75,0,0,0,9.8,8.31c4.67-2.76,4.2-10.71,5.34-10.68,1.34,0,3.51,5,1.78,8-.49.86-1,1-1.83,1.82a12.22,12.22,0,0,0-3.51,8.37c.08,5.37,5.77,8.68,4.79,10-.32.43-8.24.6-9.66,0-2.75-1.16-2.54-4.47-4.56-4.68-.48-.05-7.45,4.55-8.38,4.68-1.12.16-5.5.42-5.84,0s.22-1.68.37-2c1-1.9,10.56-7.19,12.21-7.11a7.61,7.61,0,0,1,4.8,2.13c1.39,1.39,1.63,2.9,2.55,2.88.67,0,1.36-.86,1.47-1.66.17-1.24-1.12-1.66-1.53-3.17-.6-2.2,1.54-3.62.91-4.74-.73-1.31-3.81.44-7.11-.72a9.71,9.71,0,0,1-5.9-8c0-.33-.5-5.6,3.53-8.56,2-1.47,5.71-2.81,8.57-.92a6.2,6.2,0,0,1,2.74,5.11,6.06,6.06,0,0,1-2.92,5.1c-1.08.64-3.22,1.37-4.19.37A1.94,1.94,0,0,1,252.5,215.38Z"/><path class="cls-1" d="M252.5,263.64c.66.59,1.75-.47,2.89.09a2.75,2.75,0,0,1,1.26,2.88c-.31,1.61-2.18,2.42-3.56,2.37-2.48-.09-3.73-3-3.86-3.26a6.75,6.75,0,0,1,9.8-8.31c4.67,2.76,4.2,10.71,5.34,10.68,1.34,0,3.51-5,1.78-8-.49-.86-1-1-1.83-1.82a12.22,12.22,0,0,1-3.51-8.37c.08-5.37,5.77-8.68,4.79-10-.32-.43-8.24-.6-9.66,0-2.75,1.16-2.54,4.47-4.56,4.68-.48,0-7.45-4.55-8.38-4.68-1.12-.16-5.5-.42-5.84,0s.22,1.68.37,1.95c1,1.9,10.56,7.19,12.21,7.11a7.61,7.61,0,0,0,4.8-2.13c1.39-1.39,1.63-2.9,2.55-2.88.67,0,1.36.86,1.47,1.67.17,1.23-1.12,1.65-1.53,3.16-.6,2.2,1.54,3.62.91,4.74-.73,1.31-3.81-.44-7.11.73a9.68,9.68,0,0,0-5.9,8c0,.33-.5,5.6,3.53,8.56,2,1.47,5.71,2.81,8.57.92a6.2,6.2,0,0,0,2.74-5.11,6.07,6.07,0,0,0-2.92-5.1c-1.08-.64-3.22-1.37-4.19-.37A1.94,1.94,0,0,0,252.5,263.64Z"/><path class="cls-1" d="M159.51,449.28a7,7,0,0,0,7.24.25c3.5-1.87,4-6,4-6.47v0c.08-.83.23-3.87-3-8-2.83-3.63-4.52-3.28-5-5.49a7,7,0,0,1,1.25-5c1.48-2.35,3.18-2.3,5-5.25a12.68,12.68,0,0,0,1.18-2.56c1-2.92.9-5.28,1.12-5.28s0,2.3,1.07,5a19.44,19.44,0,0,0,1.42,2.64c1.12,1.88,1.76,2.66,2.74,4.15,1.8,2.71,2.69,4.07,2.72,4.78.12,2.95-3.68,3.49-5.75,8.24a12.89,12.89,0,0,0-.78,7.42c.29,1.43,1,4.75,3.81,6.27,1.44.77,3.88,1.33,5.7.07.76-.53,1.88-1.71,1.57-2.53-.54-1.43-4.6.21-6.64-1.93-1.7-1.79-.88-5.09-.77-5.52.44-1.81,1.47-3.06,2.92-4.86,2.28-2.8,3-4.48,3.24-5.4a10,10,0,0,0-2.71-8.43,22.2,22.2,0,0,1-3.13-3.17,16.68,16.68,0,0,1-1.5-2.39,25.53,25.53,0,0,1-1.64-4.45c-1.83-5.39-2.12-6.68-2.63-6.66-.67,0-.75,2.26-2.19,6.3a33.84,33.84,0,0,1-2.28,5.21c-2.58,4.62-4.59,4.38-5.95,7.94-.39,1-1.63,4.25-.3,7.15.64,1.39,1.25,1.33,4.07,4.56,1.87,2.14,2.81,3.23,3.08,4.47.38,1.76,0,4.32-1.59,5.66-2.67,2.18-7.34-.12-7.84,1.09C157.66,447.74,158.9,448.84,159.51,449.28Z"/><path class="cls-1" d="M146.45,417.33c-1.07.24-1.18,1.78-1.77,1.77s-2-2.41-1-4c.75-1.28,2.5-1.46,3.57-1.27a5,5,0,0,1,3.35,2.93c1,2,1.23,5-.31,6.72-2.64,3-9.52.81-9.73,1.91,0,.14.07.2,2,2.42l.51.59c1.88,1.51,5.83-.55,6.29-.79.69-.37,5.11-2.76,5.5-7.64a9.33,9.33,0,0,0-6.34-9.46c-.89-.27-3.92-1-6.29.86s-3.54,6.06-1.59,8.44c1.65,2,5.2,2.46,6.73,1.07.68-.61,1.27-1.89.76-2.75A1.65,1.65,0,0,0,146.45,417.33Z"/><path class="cls-1" d="M196.47,417.33c1.07.24,1.18,1.78,1.77,1.77s2-2.41,1-4c-.76-1.28-2.5-1.46-3.57-1.27a5,5,0,0,0-3.35,2.93c-1,2-1.23,5,.3,6.72,2.65,3,9.53.81,9.74,1.91,0,.14-.08.2-2,2.42l-.51.59c-1.88,1.51-5.83-.55-6.29-.79-.69-.37-5.12-2.76-5.5-7.64a9.33,9.33,0,0,1,6.34-9.46c.89-.27,3.91-1,6.29.86s3.54,6.06,1.59,8.44c-1.65,2-5.2,2.46-6.73,1.07a2.48,2.48,0,0,1-.77-2.75A1.67,1.67,0,0,1,196.47,417.33Z"/><path class="cls-1" d="M159.65,43.14a7,7,0,0,1,7.25-.25c3.49,1.87,4,6,4,6.47v0c.07.83.22,3.87-3,8-2.84,3.64-4.52,3.29-5,5.5a7.09,7.09,0,0,0,1.25,5c1.49,2.35,3.18,2.3,5,5.25a12.52,12.52,0,0,1,1.17,2.56c1,2.92.91,5.28,1.12,5.27s0-2.29,1.07-5a19.76,19.76,0,0,1,1.43-2.64c1.11-1.88,1.75-2.66,2.73-4.15,1.8-2.72,2.7-4.08,2.73-4.78.12-2.95-3.68-3.49-5.75-8.25a12.85,12.85,0,0,1-.78-7.42c.29-1.42,1-4.74,3.81-6.26,1.43-.77,3.88-1.33,5.69-.07.77.53,1.88,1.71,1.57,2.53-.53,1.42-4.6-.21-6.63,1.93-1.7,1.79-.89,5.09-.78,5.52.45,1.8,1.47,3.06,2.93,4.85,2.28,2.81,3,4.49,3.23,5.41A9.91,9.91,0,0,1,180,71a21.87,21.87,0,0,0-3.13,3.18,16.46,16.46,0,0,0-1.51,2.39,25.42,25.42,0,0,0-1.63,4.45c-1.84,5.39-2.13,6.68-2.64,6.66-.66,0-.75-2.26-2.19-6.3a33.59,33.59,0,0,0-2.27-5.21c-2.59-4.62-4.59-4.38-6-7.94-.39-1-1.63-4.26-.3-7.15.65-1.39,1.25-1.33,4.07-4.56,1.87-2.14,2.81-3.24,3.08-4.47.38-1.76,0-4.33-1.59-5.66-2.66-2.18-7.34.12-7.84-1.09C157.81,44.68,159,43.58,159.65,43.14Z"/><path class="cls-1" d="M146.6,73.44c-1.08-.25-1.18-1.79-1.78-1.78s-2,2.41-1,4c.76,1.28,2.5,1.46,3.58,1.27a5.06,5.06,0,0,0,3.34-2.93c1-2,1.23-5-.3-6.73-2.65-2.95-9.52-.8-9.73-1.91,0-.13.07-.19,2-2.41a6,6,0,0,1,.52-.59c1.88-1.51,5.83.54,6.28.79.69.37,5.12,2.75,5.5,7.64a9.34,9.34,0,0,1-6.34,9.46c-.89.26-3.91,1-6.29-.87s-3.53-6.05-1.58-8.44c1.65-2,5.19-2.45,6.72-1.07.68.62,1.28,1.89.77,2.75A1.66,1.66,0,0,1,146.6,73.44Z"/><path class="cls-1" d="M195.61,74.09c1.08-.24,1.18-1.78,1.77-1.77.74,0,2,2.41,1,4-.75,1.28-2.5,1.46-3.57,1.27-2.05-.36-3-2.33-3.35-2.93-1-2-1.23-5,.31-6.72,2.64-3,9.52-.81,9.73-1.91,0-.14-.07-.2-2-2.42l-.51-.59c-1.88-1.51-5.83.54-6.28.79-.7.37-5.12,2.76-5.51,7.64A9.34,9.34,0,0,0,193.55,81c.88.27,3.91,1,6.28-.86s3.54-6.06,1.59-8.45c-1.65-2-5.19-2.45-6.73-1.07-.68.62-1.27,1.9-.76,2.76A1.67,1.67,0,0,0,195.61,74.09Z"/><path class="cls-1" d="M56.41,191.61c-1.36,1,0,4-.9,4.52-.77.4-2.79-1-3.39-2.94a5.18,5.18,0,0,1,2.26-5.64,5.27,5.27,0,0,1,3.83-.68A6.23,6.23,0,0,1,62.05,190a11,11,0,0,1,1.13,7.68c-1,5.31-4.2,6.25-7.9,12.19-2,3.22-5.65,9.07-4.29,15.34,1.11,5.11,5.43,10.07,9.26,9.94,1.44-.06,3.77-.87,4.15-2.26a8.19,8.19,0,0,0-.07-2.09c-.17-2.27-.23-2.47-.38-2.53-.68-.27-1.6,2.8-3.25,3-2.16.31-5.73-4.21-6.1-9-.43-5.69,3.66-10.47,6.1-13.32,3.57-4.17,5-3.69,6.54-6.77a14.16,14.16,0,0,0-.9-13.77c-.75-1.12-3.82-5.74-9-5.64a9.11,9.11,0,0,0-7.9,4.74c-2,4.12-.35,9.92,3.16,11.29a5.47,5.47,0,0,0,5.87-1.36c1.41-1.63,1.79-4.54.45-5.64A2.2,2.2,0,0,0,56.41,191.61Z"/><path class="cls-1" d="M56.41,298c-1.36-1,0-4-.9-4.51-.77-.41-2.79,1-3.39,2.93a5.19,5.19,0,0,0,2.26,5.65,5.24,5.24,0,0,0,3.83.67,6.2,6.2,0,0,0,3.84-3.16A11,11,0,0,0,63.18,292c-1-5.31-4.2-6.25-7.9-12.19-2-3.23-5.65-9.07-4.29-15.35,1.11-5.1,5.43-10.06,9.26-9.93,1.44.05,3.77.87,4.15,2.26a8.19,8.19,0,0,1-.07,2.09c-.17,2.27-.23,2.47-.38,2.53-.68.27-1.6-2.8-3.25-3-2.16-.31-5.73,4.2-6.1,9-.43,5.69,3.66,10.47,6.1,13.31,3.57,4.18,5,3.7,6.54,6.78a14.14,14.14,0,0,1-.9,13.76c-.75,1.13-3.82,5.74-9,5.65a9.11,9.11,0,0,1-7.9-4.74c-2-4.12-.35-9.93,3.16-11.29a5.47,5.47,0,0,1,5.87,1.36c1.41,1.63,1.79,4.54.45,5.64A2.2,2.2,0,0,1,56.41,298Z"/><path class="cls-1" d="M284.23,191.61c1.36,1,0,4,.9,4.52.77.4,2.79-1,3.39-2.94a5.18,5.18,0,0,0-2.26-5.64,5.27,5.27,0,0,0-3.83-.68,6.23,6.23,0,0,0-3.84,3.16,11,11,0,0,0-1.13,7.68c1,5.31,4.2,6.25,7.9,12.19,2,3.22,5.65,9.07,4.29,15.34-1.11,5.11-5.43,10.07-9.26,9.94-1.44-.06-3.77-.87-4.15-2.26a8.19,8.19,0,0,1,.07-2.09c.17-2.27.23-2.47.38-2.53.68-.27,1.6,2.8,3.25,3,2.16.31,5.73-4.21,6.1-9,.43-5.69-3.66-10.47-6.1-13.32-3.57-4.17-5-3.69-6.54-6.77a14.16,14.16,0,0,1,.9-13.77c.75-1.12,3.82-5.74,9-5.64a9.11,9.11,0,0,1,7.9,4.74c2,4.12.35,9.92-3.16,11.29a5.47,5.47,0,0,1-5.87-1.36c-1.41-1.63-1.79-4.54-.45-5.64A2.2,2.2,0,0,1,284.23,191.61Z"/><path class="cls-1" d="M284.23,298c1.36-1,0-4,.9-4.51.77-.41,2.79,1,3.39,2.93a5.19,5.19,0,0,1-2.26,5.65,5.24,5.24,0,0,1-3.83.67,6.2,6.2,0,0,1-3.84-3.16,11,11,0,0,1-1.13-7.67c1-5.31,4.2-6.25,7.9-12.19,2-3.23,5.65-9.07,4.29-15.35-1.11-5.1-5.43-10.06-9.26-9.93-1.44.05-3.77.87-4.15,2.26a8.19,8.19,0,0,0,.07,2.09c.17,2.27.23,2.47.38,2.53.68.27,1.6-2.8,3.25-3,2.16-.31,5.73,4.2,6.1,9,.43,5.69-3.66,10.47-6.1,13.31-3.57,4.18-5,3.7-6.54,6.78a14.14,14.14,0,0,0,.9,13.76c.75,1.13,3.82,5.74,9,5.65a9.11,9.11,0,0,0,7.9-4.74c2-4.12.35-9.93-3.16-11.29a5.47,5.47,0,0,0-5.87,1.36c-1.41,1.63-1.79,4.54-.45,5.64A2.2,2.2,0,0,0,284.23,298Z"/></svg>